REM DIRINDEX 1\2,1\3
REM DIRNAME folder01,folder02,folder03
TITLE ""
FILE "CD2Track41.mp3" MP3
  TRACK 01 AUDIO
    TITLE "0:"
    INDEX 01 00:00:00
  TRACK 02 AUDIO
    TITLE "2:cjc102_4222"
    INDEX 01 00:00:27
  TRACK 03 AUDIO
    TITLE "0:"
    INDEX 01 00:01:11
  TRACK 04 AUDIO
    TITLE "3:cjc102_4223"
    INDEX 01 00:01:22
  TRACK 05 AUDIO
    TITLE "0:"
    INDEX 01 00:02:61
  TRACK 06 AUDIO
    TITLE "3:cjc102_4224"
    INDEX 01 00:03:68
  TRACK 07 AUDIO
    TITLE "0:"
    INDEX 01 00:08:42
  TRACK 08 AUDIO
    TITLE "2:cjc102_4225"
    INDEX 01 00:08:44
  TRACK 09 AUDIO
    TITLE "0:"
    INDEX 01 00:09:57
  TRACK 10 AUDIO
    TITLE "3:cjc102_4226"
    INDEX 01 00:09:65
  TRACK 11 AUDIO
    TITLE "0:"
    INDEX 01 00:10:59
  TRACK 12 AUDIO
    TITLE "2:cjc102_4227"
    INDEX 01 00:11:09
  TRACK 13 AUDIO
    TITLE "0:"
    INDEX 01 00:12:16
  TRACK 14 AUDIO
    TITLE "3:cjc102_4228"
    INDEX 01 00:13:02
  TRACK 15 AUDIO
    TITLE "0:"
    INDEX 01 00:13:63
  TRACK 16 AUDIO
    TITLE "2:cjc102_4229"
    INDEX 01 00:14:25
  TRACK 17 AUDIO
    TITLE "0:"
    INDEX 01 00:15:36
  TRACK 18 AUDIO
    TITLE "3:cjc102_4230"
    INDEX 01 00:16:26
  TRACK 19 AUDIO
    TITLE "0:"
    INDEX 01 00:17:25
  TRACK 20 AUDIO
    TITLE "2:cjc102_4231"
    INDEX 01 00:17:27
  TRACK 21 AUDIO
    TITLE "0:"
    INDEX 01 00:18:31
  TRACK 22 AUDIO
    TITLE "3:cjc102_4232"
    INDEX 01 00:19:44
  TRACK 23 AUDIO
    TITLE "0:"
    INDEX 01 00:20:39
  TRACK 24 AUDIO
    TITLE "2:cjc102_4233"
    INDEX 01 00:20:67
  TRACK 25 AUDIO
    TITLE "0:"
    INDEX 01 00:22:07
  TRACK 26 AUDIO
    TITLE "3:cjc102_4234"
    INDEX 01 00:23:04
  TRACK 27 AUDIO
    TITLE "0:"
    INDEX 01 00:23:59
  TRACK 28 AUDIO
    TITLE "2:cjc102_4235"
    INDEX 01 00:24:39
  TRACK 29 AUDIO
    TITLE "0:"
    INDEX 01 00:25:54
  TRACK 30 AUDIO
    TITLE "3:cjc102_4236"
    INDEX 01 00:27:00
  TRACK 31 AUDIO
    TITLE "0:"
    INDEX 01 00:27:73
  TRACK 32 AUDIO
    TITLE "2:cjc102_4237"
    INDEX 01 00:28:12
  TRACK 33 AUDIO
    TITLE "0:"
    INDEX 01 00:29:29
  TRACK 34 AUDIO
    TITLE "3:cjc102_4238"
    INDEX 01 00:30:36
  TRACK 35 AUDIO
    TITLE "0:"
    INDEX 01 00:31:31
  TRACK 36 AUDIO
    TITLE "2:cjc102_4239"
    INDEX 01 00:31:71
  TRACK 37 AUDIO
    TITLE "0:"
    INDEX 01 00:33:01
  TRACK 38 AUDIO
    TITLE "3:cjc102_4240"
    INDEX 01 00:34:10
  TRACK 39 AUDIO
    TITLE "0:"
    INDEX 01 00:35:04
  TRACK 40 AUDIO
    TITLE "2:cjc102_4241"
    INDEX 01 00:35:45
  TRACK 41 AUDIO
    TITLE "0:"
    INDEX 01 00:36:60
  TRACK 42 AUDIO
    TITLE "3:cjc102_4242"
    INDEX 01 00:37:67
  TRACK 43 AUDIO
    TITLE "0:"
    INDEX 01 00:38:61
  TRACK 44 AUDIO
    TITLE "2:cjc102_4243"
    INDEX 01 00:39:31
  TRACK 45 AUDIO
    TITLE "0:"
    INDEX 01 00:40:46
  TRACK 46 AUDIO
    TITLE "3:cjc102_4244"
    INDEX 01 00:41:44
  TRACK 47 AUDIO
    TITLE "0:"
    INDEX 01 00:42:37
  TRACK 48 AUDIO
    TITLE "2:cjc102_4245"
    INDEX 01 00:43:17
  TRACK 49 AUDIO
    TITLE "0:"
    INDEX 01 00:44:24
  TRACK 50 AUDIO
    TITLE "3:cjc102_4246"
    INDEX 01 00:45:28
  TRACK 51 AUDIO
    TITLE "0:"
    INDEX 01 00:46:43
  TRACK 52 AUDIO
    TITLE "2:cjc102_4247"
    INDEX 01 00:47:19
  TRACK 53 AUDIO
    TITLE "0:"
    INDEX 01 00:48:44
  TRACK 54 AUDIO
    TITLE "3:cjc102_4248"
    INDEX 01 00:49:55
  TRACK 55 AUDIO
    TITLE "0:"
    INDEX 01 00:50:68
  TRACK 56 AUDIO
    TITLE "2:cjc102_4249"
    INDEX 01 00:51:50
  TRACK 57 AUDIO
    TITLE "0:"
    INDEX 01 00:53:00
  TRACK 58 AUDIO
    TITLE "3:cjc102_4250"
    INDEX 01 00:54:44
  TRACK 59 AUDIO
    TITLE "0:"
    INDEX 01 00:55:65
  TRACK 60 AUDIO
    TITLE "2:cjc102_4251"
    INDEX 01 00:56:00
  TRACK 61 AUDIO
    TITLE "0:"
    INDEX 01 00:56:69
  TRACK 62 AUDIO
    TITLE "3:cjc102_4252"
    INDEX 01 00:58:50
  TRACK 63 AUDIO
    TITLE "0:"
    INDEX 01 00:59:69
  TRACK 64 AUDIO
    TITLE "2:cjc102_4253"
    INDEX 01 01:00:13
  TRACK 65 AUDIO
    TITLE "0:"
    INDEX 01 01:01:27
  TRACK 66 AUDIO
    TITLE "3:cjc102_4254"
    INDEX 01 01:02:46
  TRACK 67 AUDIO
    TITLE "0:"
    INDEX 01 01:03:53
  TRACK 68 AUDIO
    TITLE "2:cjc102_4255"
    INDEX 01 01:04:09
  TRACK 69 AUDIO
    TITLE "0:"
    INDEX 01 01:05:17
  TRACK 70 AUDIO
    TITLE "3:cjc102_4256"
    INDEX 01 01:06:71
  TRACK 71 AUDIO
    TITLE "0:"
    INDEX 01 01:08:09
  TRACK 72 AUDIO
    TITLE "2:cjc102_4257"
    INDEX 01 01:08:42
  TRACK 73 AUDIO
    TITLE "0:"
    INDEX 01 01:09:46
  TRACK 74 AUDIO
    TITLE "3:cjc102_4258"
    INDEX 01 01:11:21
  TRACK 75 AUDIO
    TITLE "0:"
    INDEX 01 01:12:42
  TRACK 76 AUDIO
    TITLE "2:cjc102_4259"
    INDEX 01 01:13:26
  TRACK 77 AUDIO
    TITLE "0:"
    INDEX 01 01:14:27
  TRACK 78 AUDIO
    TITLE "2:cjc102_4260"
    INDEX 01 01:15:03
  TRACK 79 AUDIO
    TITLE "0:"
    INDEX 01 01:16:05
  TRACK 80 AUDIO
    TITLE "3:cjc102_4261"
    INDEX 01 01:17:04
  TRACK 81 AUDIO
    TITLE "0:"
    INDEX 01 01:18:29
  TRACK 82 AUDIO
    TITLE "2:cjc102_4262"
    INDEX 01 01:18:56
  TRACK 83 AUDIO
    TITLE "0:"
    INDEX 01 01:19:52
  TRACK 84 AUDIO
    TITLE "2:cjc102_4263"
    INDEX 01 01:20:36
  TRACK 85 AUDIO
    TITLE "0:"
    INDEX 01 01:21:43
  TRACK 86 AUDIO
    TITLE "3:cjc102_4264"
    INDEX 01 01:22:41
  TRACK 87 AUDIO
    TITLE "0:"
    INDEX 01 01:23:65
  TRACK 88 AUDIO
    TITLE "2:cjc102_4265"
    INDEX 01 01:24:18
  TRACK 89 AUDIO
    TITLE "0:"
    INDEX 01 01:25:17
  TRACK 90 AUDIO
    TITLE "2:cjc102_4266"
    INDEX 01 01:26:05
  TRACK 91 AUDIO
    TITLE "0:"
    INDEX 01 01:27:10
  TRACK 92 AUDIO
    TITLE "3:cjc102_4267"
    INDEX 01 01:28:22
  TRACK 93 AUDIO
    TITLE "0:"
    INDEX 01 01:29:33
  TRACK 94 AUDIO
    TITLE "2:cjc102_4268"
    INDEX 01 01:29:62
  TRACK 95 AUDIO
    TITLE "0:"
    INDEX 01 01:30:58
  TRACK 96 AUDIO
    TITLE "2:cjc102_4269"
    INDEX 01 01:31:53
  TRACK 97 AUDIO
    TITLE "0:"
    INDEX 01 01:32:60
  TRACK 98 AUDIO
    TITLE "3:cjc102_4270"
    INDEX 01 01:33:62
  TRACK 99 AUDIO
    TITLE "0:"
    INDEX 01 01:35:16
  TRACK 100 AUDIO
    TITLE "2:cjc102_4271"
    INDEX 01 01:35:45
  TRACK 101 AUDIO
    TITLE "0:"
    INDEX 01 01:36:37
  TRACK 102 AUDIO
    TITLE "2:cjc102_4272"
    INDEX 01 01:37:40
  TRACK 103 AUDIO
    TITLE "0:"
    INDEX 01 01:38:43
  TRACK 104 AUDIO
    TITLE "3:cjc102_4273"
    INDEX 01 01:39:33
  TRACK 105 AUDIO
    TITLE "0:"
    INDEX 01 01:40:56
  TRACK 106 AUDIO
    TITLE "2:cjc102_4274"
    INDEX 01 01:41:03
  TRACK 107 AUDIO
    TITLE "0:"
    INDEX 01 01:43:52
  TRACK 108 AUDIO
    TITLE "3:cjc102_4275"
    INDEX 01 01:45:20
  TRACK 109 AUDIO
    TITLE "0:"
    INDEX 01 01:46:49
  TRACK 110 AUDIO
    TITLE "2:cjc102_4276"
    INDEX 01 01:47:19
  TRACK 111 AUDIO
    TITLE "0:"
    INDEX 01 01:50:21
  TRACK 112 AUDIO
    TITLE "3:cjc102_4277"
    INDEX 01 01:51:62
  TRACK 113 AUDIO
    TITLE "0:"
    INDEX 01 01:53:16
  TRACK 114 AUDIO
    TITLE "2:cjc102_4278"
    INDEX 01 01:53:45
  TRACK 115 AUDIO
    TITLE "0:"
    INDEX 01 01:58:15
